<svg width="32" height="32" viewBox="0 0 346 502" fill="none" xmlns="http://www.w3.org/2000/svg">
<path d="M332.546 238.267C341.28 260.452 345.735 284.028 345.735 307.82C345.735 322.256 344.092 336.661 340.82 350.74C330.723 394.196 305.524 432.899 269.644 460.354C262.139 466.094 254.219 471.304 245.951 475.936C233.416 482.956 220.119 488.627 206.326 492.827C154.22 508.698 97.8404 502.846 50.4697 477.1C47.5257 475.5 45.6044 473.054 44.7804 469.861C42.3844 460.537 53.1084 450.184 62.9084 455.502C104.218 477.923 153.339 483.011 198.77 469.173C210.795 465.507 222.394 460.564 233.322 454.442C240.534 450.403 247.446 445.856 253.992 440.849C285.283 416.907 307.266 383.155 316.071 345.257C318.927 332.977 320.359 320.413 320.359 307.82C320.359 285.603 315.907 263.607 307.19 243.08C306.504 241.464 305.792 239.86 305.055 238.267C301.144 229.812 296.522 221.691 291.25 213.987C286.798 207.488 281.886 201.292 276.542 195.443C274.355 193.047 272.103 190.719 269.788 188.457C260.274 179.163 249.73 171.028 238.383 164.176C220.906 153.623 201.532 146.119 181.115 142.128C169.758 139.912 158.194 138.804 146.615 138.804C138.514 138.804 130.435 139.361 122.436 140.473C113.538 141.705 100.568 147.485 100.568 133.217V119.345V61.2666C100.568 40.9333 83.4444 24.2093 62.6164 24.2093C41.7911 24.2093 24.6644 40.9333 24.6644 61.2666V155.216V188.264V226.841V226.976C24.6644 253.876 24.595 280.771 24.559 307.664V307.743V307.82V307.9V307.981C24.559 309.617 24.5951 311.253 24.6644 312.883C25.1004 323.085 26.8471 333.108 29.8511 342.747C32.4311 351.015 35.9324 359.001 40.3257 366.572C42.847 370.919 45.659 375.125 48.7604 379.175C52.735 384.361 57.1377 389.229 61.9177 393.721C94.1977 424.064 140.786 434.975 183.668 421.909C192.172 419.32 200.368 415.824 208.094 411.497C213.198 408.639 218.087 405.421 222.719 401.877C244.839 384.955 260.402 361.097 266.627 334.301C268.644 325.616 269.658 316.728 269.658 307.82C269.658 292.107 266.52 276.564 260.356 262.043C256.783 253.631 252.228 245.653 246.803 238.267C244.288 234.845 241.583 231.549 238.704 228.396C233.888 223.124 228.63 218.308 223.004 213.987C207.923 202.407 190.186 194.391 171.164 190.676C165.106 189.489 158.962 188.752 152.792 188.457H140.222C133.202 188.457 127.459 194.2 127.459 201.224C127.459 206.645 130.884 211.305 135.678 213.148C137.091 213.688 138.626 213.987 140.222 213.987C148.867 213.987 157.66 213.331 166.18 215C183.763 218.432 199.959 226.495 213.054 238.267C215.388 240.365 217.62 242.581 219.748 244.907C226.942 252.784 232.748 261.797 236.888 271.544C241.776 283.055 244.252 295.365 244.252 307.82C244.252 314.883 243.451 321.928 241.852 328.813C236.918 350.045 224.578 368.941 207.051 382.355C203.379 385.164 199.5 387.715 195.454 389.98C189.334 393.409 182.839 396.18 176.104 398.232C142.067 408.599 105.151 399.931 79.5364 375.849C76.4484 372.948 73.5564 369.847 70.8844 366.572C70.2817 365.831 69.6871 365.076 69.1044 364.316C63.9737 357.619 59.8364 350.372 56.7404 342.747C52.2657 331.721 49.9604 319.909 49.9604 307.82V234.999V59.8213C49.9604 43.488 75.3657 43.488 75.3657 59.8213C75.3657 140.211 75.4217 224.773 75.4217 305.047C75.3831 305.969 75.3657 306.893 75.3657 307.82C75.3657 308.761 75.3831 309.696 75.4217 310.62V310.633C75.8911 322.465 79.3137 333.344 84.9004 342.747C86.2871 345.077 87.8044 347.317 89.447 349.461C91.7817 352.507 94.3617 355.356 97.1524 357.983C100.572 361.195 104.306 364.073 108.295 366.572C125.392 377.292 147.143 381.069 168.538 374.552C173.558 373.024 178.338 370.972 182.812 368.464C185.812 366.785 188.675 364.9 191.379 362.831C204.116 353.087 213.382 339.236 217.08 323.325C218.238 318.339 218.85 313.148 218.85 307.82C218.85 298.333 216.922 289.291 213.424 281.045C210.35 273.809 206.058 267.187 200.79 261.42C188.603 248.08 171.866 239.983 153.939 238.267C151.532 238.039 140.626 237.92 138.15 237.92C137.268 237.92 136.39 237.936 135.514 237.969C123.216 236.392 112.758 228.724 107.279 218.115C104.659 213.043 103.178 207.299 103.178 201.224C103.178 198.26 103.528 195.372 104.194 192.604C108.106 176.349 122.812 164.176 140.226 164.176C153.202 164.176 163.247 163.911 176.135 166.428C195.572 170.225 213.899 177.752 230.111 188.457C240.171 195.103 249.416 202.971 257.606 211.937C258.226 212.616 258.838 213.299 259.442 213.987C266.038 221.488 271.82 229.628 276.699 238.267C279.316 242.9 281.67 247.676 283.748 252.572C291.187 270.092 294.98 288.857 294.98 307.82C294.98 318.568 293.76 329.292 291.326 339.773C283.811 372.116 265.04 400.915 238.338 421.343C232.751 425.617 226.852 429.5 220.696 432.948C211.368 438.171 201.474 442.391 191.212 445.518C149.408 458.249 103.991 452.219 67.1604 429.125C58.9937 424.004 51.3444 418.107 44.3511 411.536C38.5871 406.117 33.2764 400.245 28.4831 393.987C25.0671 389.531 21.9204 384.879 19.0551 380.063C8.94039 363.048 2.60972 344.324 0.261719 324.951V290.785V278.187V218.157V177.345V61.2666C0.261719 27.784 28.3231 0.385333 62.6164 0.385333C96.9124 0.385333 124.97 27.7866 124.97 61.2666V115.185C132.15 114.412 139.376 114.021 146.615 114.021C159.866 114.021 173.102 115.293 186.094 117.831C221.384 124.729 253.956 140.788 280.454 164.176C285.712 168.819 290.728 173.747 295.482 178.949C298.302 182.033 301.016 185.208 303.623 188.457C310.082 196.509 315.875 205.049 320.946 213.987C324.546 220.331 327.782 226.875 330.631 233.588C331.29 235.143 331.93 236.704 332.546 238.267" fill="#F6AB1D"/>
</svg>
